#!OML:ASF I:\Actors\actors\Patient Classification 1\Patient 1\Session 1\Subject1.ASF
:FULLY-SPECIFIED
:DEGREES
1073
root -0.217237 17.6463 9.26463 23.8981 2.89138 -9.93613
lowerback 15.1281 0.202758 9.59122
upperback -9.47922 2.96207 2.02328
thorax -19.5209 0.239712 -3.91832
lowerneck -14.5518 -2.69973 1.16526
upperneck 29.3053 -5.5857 4.3252
head 12.1788 -1.80606 0.610472
rclavicle 8.12532e-015 -3.06128e-014
rhumerus -25.0383 -57.266 -6.8212
rradius 74.1632
rwrist 20.1978
rhand -29.7706 -51.2566
rfingers 7.12502
rthumb -3.09592 -81.2139
lclavicle 8.12532e-015 -3.06128e-014
lhumerus -25.4355 57.9351 16.6211
lradius 86.5018
lwrist -0.402569
lhand -57.1303 -64.9612
lfingers 7.12502
lthumb -29.4158 -37.2697
rfemur -18.5919 28.4432 19.3996
rtibia 2.18835
rfoot -13.0439 -30.1074
rtoes 7.33178
lfemur -12.5482 -55.4427 7.394
ltibia -6.60512
lfoot -57.4527 55.6792
ltoes 36.5274
1074
root -0.216304 17.6468 9.26327 24.0005 2.74384 -9.96617
lowerback 15.3451 0.210955 9.54224
upperback -9.62928 3.01403 2.07301
thorax -19.8682 0.251809 -3.85295
lowerneck -14.2574 -2.64013 0.99322
upperneck 29.3275 -5.45525 4.36296
head 12.1291 -1.76725 0.677589
rclavicle -1.14053e-014 -7.15625e-015
rhumerus -26.5498 -56.9399 -7.80692
rradius 74.3237
rwrist 20.4974
rhand -31.7516 -52.6975
rfingers 7.12502
rthumb -5.00887 -82.6183
lclavicle -1.14053e-014 -7.15625e-015
lhumerus -28.3215 57.1375 15.9664
lradius 85.8834
lwrist -0.279535
lhand -57.4959 -67.8653
lfingers 7.12502
lthumb -29.7649 -40.2358
rfemur -18.7206 28.645 19.2902
rtibia 2.11923
rfoot -12.913 -30.209
rtoes 7.16335
lfemur -12.6064 -55.2088 7.4497
ltibia -6.64353
lfoot -57.5609 55.5091
ltoes 36.6589
1075
root -0.215486 17.6469 9.26293 24.1269 2.65526 -9.9302
lowerback 15.3453 0.207654 9.4354
upperback -9.66306 2.99483 2.12101
thorax -19.9218 0.259488 -3.72992
lowerneck -14.3033 -2.58108 0.950242
upperneck 29.4352 -5.34589 4.29441
head 12.1774 -1.72847 0.67501
rclavicle -1.91579e-014 7.05686e-015
rhumerus -27.8992 -56.9618 -8.84427
rradius 74.5095
rwrist 21.0432
rhand -31.9686 -51.7746
rfingers 7.12502
rthumb -5.21838 -81.6904
lclavicle -1.91579e-014 7.05686e-015
lhumerus -30.8203 56.7461 15.677
lradius 85.1494
lwrist -0.823331
lhand -57.5953 -69.6705
lfingers 7.12502
lthumb -29.8597 -42.0579
rfemur -18.8476 28.8739 19.0983
rtibia 2.00956
rfoot -12.8612 -30.4324
rtoes 7.1544
lfemur -12.7798 -55.0422 7.52504
ltibia -6.65635
lfoot -57.4321 55.5836
ltoes 36.5308
1076
root -0.214127 17.6482 9.26249 24.259 2.5786 -9.86758
lowerback 15.338 0.197287 9.31984
upperback -9.68338 2.95407 2.12778
thorax -19.9523 0.256015 -3.64446
lowerneck -14.4965 -2.55333 1.04185
upperneck 29.6116 -5.31172 4.17118
head 12.2808 -1.71087 0.615952
rclavicle 3.97569e-016 -3.07122e-014
rhumerus -29.2003 -56.8607 -9.93272
rradius 74.6986
rwrist 20.8982
rhand -32.0455 -51.7835
rfingers 7.12502
rthumb -5.29266 -81.6974
lclavicle 3.97569e-016 -3.07122e-014
lhumerus -32.9937 56.71 15.6564
lradius 84.4757
lwrist -2.02763
lhand -57.229 -70.306
lfingers 7.12502
lthumb -29.5101 -42.6311
rfemur -19.0154 29.0357 18.8768
rtibia 1.95506
rfoot -12.882 -30.5805
rtoes 7.26036
lfemur -12.9497 -54.9044 7.55685
ltibia -6.66115
lfoot -57.2835 55.6535
ltoes 36.5302
1077
root -0.2129 17.6495 9.26182 24.3476 2.49985 -9.85739
lowerback 15.3869 0.192269 9.25675
upperback -9.70835 2.94367 2.14673
thorax -20.0234 0.25777 -3.58456
lowerneck -14.6396 -2.56684 1.0101
upperneck 29.7691 -5.33689 4.1657
head 12.3755 -1.7197 0.61421
rclavicle 2.95692e-015 1.15295e-014
rhumerus -30.484 -56.5832 -10.9801
rradius 74.8802
rwrist 20.3467
rhand -32.6717 -51.3226
rfingers 7.12502
rthumb -5.89726 -81.2206
lclavicle 2.95692e-015 1.15295e-014
lhumerus -34.9498 56.8828 15.8267
lradius 83.8934
lwrist -3.56201
lhand -56.9237 -71.7061
lfingers 7.12502
lthumb -29.2186 -43.9801
rfemur -19.1603 29.1073 18.7624
rtibia 1.96118
rfoot -12.8401 -30.6053
rtoes 7.30933
lfemur -13.0165 -54.7655 7.57041
ltibia -6.67385
lfoot -57.2849 55.5503
ltoes 36.7143
1078
root -0.210951 17.6494 9.26147 24.3889 2.43528 -9.87366
lowerback 15.4524 0.221969 9.30236
upperback -9.71655 3.00339 2.13439
thorax -20.0696 0.273531 -3.64516
lowerneck -14.7577 -2.6236 0.89268
upperneck 29.8833 -5.42899 4.26501
head 12.4558 -1.75548 0.657105
rclavicle -8.62228e-015 1.30204e-014
rhumerus -32.0353 -56.5138 -11.6441
rradius 74.9573
rwrist 20.5058
rhand -31.9495 -51.6207
rfingers 7.12502
rthumb -5.19995 -81.5369
lclavicle -8.62228e-015 1.30204e-014
lhumerus -36.5634 57.1021 16.3349
lradius 83.4545
lwrist -4.69361
lhand -57.0252 -73.7038
lfingers 7.12502
lthumb -29.3156 -45.9948
rfemur -19.2212 29.1283 18.7323
rtibia 1.958
rfoot -12.7818 -30.5857
rtoes 7.43983
lfemur -12.9875 -54.6525 7.54546
ltibia -6.71002
lfoot -57.4077 55.325
ltoes 36.9812
1079
root -0.208261 17.6486 9.26262 24.4088 2.36812 -9.89337
lowerback 15.4653 0.269507 9.3822
upperback -9.70611 3.08622 2.11459
thorax -20.0496 0.297828 -3.7397
lowerneck -14.8691 -2.69 0.787757
upperneck 29.9836 -5.53571 4.35978
head 12.5294 -1.79717 0.694019
rclavicle 5.46658e-016 -3.90612e-014
rhumerus -33.5708 -56.6562 -12.1542
rradius 74.9088
rwrist 21.3961
rhand -32.5918 -50.1845
rfingers 7.12502
rthumb -5.82014 -80.0846
lclavicle 5.46658e-016 -3.90612e-014
lhumerus -38.1152 57.1949 16.8831
lradius 83.147
lwrist -5.13832
lhand -57.2047 -74.8543
lfingers 7.12502
lthumb -29.4869 -47.1754
rfemur -19.2439 29.1583 18.7204
rtibia 1.95394
rfoot -12.7616 -30.5731
rtoes 7.53207
lfemur -12.8781 -54.5523 7.46356
ltibia -6.78109
lfoot -57.5414 55.1156
ltoes 37.2848
